<?xml version="1.0" encoding="UTF-8"?>
<!DOCTYPE svg PUBLIC "-//W3C//DTD SVG 1.1//EN" "http://www.w3.org/Graphics/SVG/1.1/DTD/svg11.dtd">
<svg xmlns="http://www.w3.org/2000/svg" version="1.1" width="512px" height="512px" style="shape-rendering:geometricPrecision; text-rendering:geometricPrecision; image-rendering:optimizeQuality; fill-rule:evenodd; clip-rule:evenodd" xmlns:xlink="http://www.w3.org/1999/xlink">
<g><path style="opacity:1" fill="#e0ddd8" d="M 225.5,45.5 C 313.948,40.1369 381.448,74.8035 428,149.5C 454.237,197.826 461.237,248.826 449,302.5C 427.243,377.256 379.41,426.756 305.5,451C 216.641,472.046 142.808,447.88 84,378.5C 50.5698,333.802 36.5698,283.468 42,227.5C 52.764,157.098 88.9306,104.265 150.5,69C 174.211,56.5938 199.211,48.7605 225.5,45.5 Z M 205.5,143.5 C 239.835,143.333 274.168,143.5 308.5,144C 339.171,144.918 368.171,152.251 395.5,166C 419.575,182.289 432.741,205.123 435,234.5C 437.127,247.562 436.794,260.562 434,273.5C 432.207,288.638 424.041,294.138 409.5,290C 403.758,288.197 398.091,286.197 392.5,284C 365.172,269.782 337.172,257.116 308.5,246C 270.409,231.472 232.075,230.805 193.5,244C 180.609,248.446 167.943,253.446 155.5,259C 135.074,269.213 114.408,278.88 93.5,288C 74.1028,296.393 63.2695,290.226 61,269.5C 57.0186,242.388 61.352,216.721 74,192.5C 81.5992,180.234 91.7658,170.734 104.5,164C 124.058,154.276 144.725,148.276 166.5,146C 179.663,145.247 192.663,144.413 205.5,143.5 Z"/></g>
<g><path style="opacity:1" fill="#202020" d="M 444.5,229.5 C 444.784,231.415 444.451,233.081 443.5,234.5C 438.306,185.467 411.64,155.3 363.5,144C 343.784,139.231 323.784,136.231 303.5,135C 257.81,134.114 212.143,134.781 166.5,137C 136.852,139.547 109.852,149.214 85.5,166C 63.4674,186.234 52.134,211.4 51.5,241.5C 50.5233,238.713 50.19,235.713 50.5,232.5C 58.7484,165.793 91.415,114.96 148.5,80C 190.221,56.0757 234.888,48.0757 282.5,56C 350.084,70.2579 398.917,108.425 429,170.5C 437.455,189.322 442.622,208.988 444.5,229.5 Z"/></g>
<g><path style="opacity:1" fill="#e1ded9" d="M 443.5,234.5 C 443.205,236.735 443.539,238.735 444.5,240.5C 445.462,255.128 443.962,269.461 440,283.5C 434.043,297.561 423.543,302.728 408.5,299C 384.908,290.038 361.908,279.705 339.5,268C 315.288,256.373 289.954,248.373 263.5,244C 228.399,242.441 195.066,249.441 163.5,265C 142.167,275 120.833,285 99.5,295C 67.8965,306.592 51.8965,295.425 51.5,261.5C 51.5,254.833 51.5,248.167 51.5,241.5C 52.134,211.4 63.4674,186.234 85.5,166C 109.852,149.214 136.852,139.547 166.5,137C 212.143,134.781 257.81,134.114 303.5,135C 323.784,136.231 343.784,139.231 363.5,144C 411.64,155.3 438.306,185.467 443.5,234.5 Z M 205.5,143.5 C 192.663,144.413 179.663,145.247 166.5,146C 144.725,148.276 124.058,154.276 104.5,164C 91.7658,170.734 81.5992,180.234 74,192.5C 61.352,216.721 57.0186,242.388 61,269.5C 63.2695,290.226 74.1028,296.393 93.5,288C 114.408,278.88 135.074,269.213 155.5,259C 167.943,253.446 180.609,248.446 193.5,244C 232.075,230.805 270.409,231.472 308.5,246C 337.172,257.116 365.172,269.782 392.5,284C 398.091,286.197 403.758,288.197 409.5,290C 424.041,294.138 432.207,288.638 434,273.5C 436.794,260.562 437.127,247.562 435,234.5C 432.741,205.123 419.575,182.289 395.5,166C 368.171,152.251 339.171,144.918 308.5,144C 274.168,143.5 239.835,143.333 205.5,143.5 Z"/></g>
<g><path style="opacity:1" fill="#676665" d="M 444.5,229.5 C 445.461,231.265 445.795,233.265 445.5,235.5C 444.549,236.919 444.216,238.585 444.5,240.5C 443.539,238.735 443.205,236.735 443.5,234.5C 444.451,233.081 444.784,231.415 444.5,229.5 Z"/></g>
<g><path style="opacity:1" fill="#202020" d="M 445.5,235.5 C 449.232,314.536 418.565,376.036 353.5,420C 284.526,459.781 215.193,460.448 145.5,422C 102.05,394.214 72.5505,355.714 57,306.5C 53.4787,292.017 51.312,277.35 50.5,262.5C 50.5,261.833 50.8333,261.5 51.5,261.5C 51.8965,295.425 67.8965,306.592 99.5,295C 120.833,285 142.167,275 163.5,265C 195.066,249.441 228.399,242.441 263.5,244C 289.954,248.373 315.288,256.373 339.5,268C 361.908,279.705 384.908,290.038 408.5,299C 423.543,302.728 434.043,297.561 440,283.5C 443.962,269.461 445.462,255.128 444.5,240.5C 444.216,238.585 444.549,236.919 445.5,235.5 Z"/></g>
<g><path style="opacity:1" fill="#5a5958" d="M 50.5,232.5 C 50.19,235.713 50.5233,238.713 51.5,241.5C 51.5,248.167 51.5,254.833 51.5,261.5C 50.8333,261.5 50.5,261.833 50.5,262.5C 49.1667,252.5 49.1667,242.5 50.5,232.5 Z"/></g>
</svg>
